HIERARCHY
ROOT Hips
{
	OFFSET 0.000000 0.000000 0.000000
	CHANNELS 6 Xposition Yposition Zposition Zrotation Yrotation Xrotation 
	JOINT LHipJoint
	{
		OFFSET 0.000000 0.000000 0.000000
		CHANNELS 3 Zrotation Yrotation Xrotation
		JOINT LeftUpLeg
		{
			OFFSET 1.363060 -1.794630 0.839290
			CHANNELS 3 Zrotation Yrotation Xrotation
			JOINT LeftLeg
			{
				OFFSET 2.448110 -6.726130 0.000000
				CHANNELS 3 Zrotation Yrotation Xrotation
				JOINT LeftFoot
				{
					OFFSET 2.562200 -7.039590 0.000000
					CHANNELS 3 Zrotation Yrotation Xrotation
					JOINT LeftToeBase
					{
						OFFSET 0.157640 -0.433110 2.322550
						CHANNELS 3 Zrotation Yrotation Xrotation
						End Site
						{
							OFFSET 0.000000 0.000000 0.000000
						}
					}
				}
			}
		}
	}
	JOINT RHipJoint
	{
		OFFSET 0.000000 0.000000 0.000000
		CHANNELS 3 Zrotation Yrotation Xrotation
		JOINT RightUpLeg
		{
			OFFSET -1.305520 -1.794630 0.839290
			CHANNELS 3 Zrotation Yrotation Xrotation
			JOINT RightLeg
			{
				OFFSET -2.542530 -6.985550 0.000000
				CHANNELS 3 Zrotation Yrotation Xrotation
				JOINT RightFoot
				{
					OFFSET -2.568260 -7.056230 0.000000
					CHANNELS 3 Zrotation Yrotation Xrotation
					JOINT RightToeBase
					{
						OFFSET -0.164730 -0.452590 2.363150
						CHANNELS 3 Zrotation Yrotation Xrotation
						End Site
						{
							OFFSET 0.000000 0.000000 0.000000
						}
					}
				}
			}
		}
	}
	JOINT LowerBack
	{
		OFFSET 0.000000 0.000000 0.000000
		CHANNELS 3 Zrotation Yrotation Xrotation
		JOINT Spine
		{
			OFFSET 0.028270 2.035590 -0.193380
			CHANNELS 3 Zrotation Yrotation Xrotation
			JOINT Spine1
			{
				OFFSET 0.056720 2.048850 -0.042750
				CHANNELS 3 Zrotation Yrotation Xrotation
				JOINT Neck
				{
					OFFSET 0.000000 0.000000 0.000000
					CHANNELS 3 Zrotation Yrotation Xrotation
					JOINT Neck1
					{
						OFFSET -0.054170 1.746240 0.172020
						CHANNELS 3 Zrotation Yrotation Xrotation
						JOINT Head
						{
							OFFSET 0.104070 1.761360 -0.123970
							CHANNELS 3 Zrotation Yrotation Xrotation
							End Site
							{
								OFFSET 0.000000 0.000000 0.000000
							}
						}
					}
				}
				JOINT LeftShoulder
				{
					OFFSET 0.000000 0.000000 0.000000
					CHANNELS 3 Zrotation Yrotation Xrotation
					JOINT LeftArm
					{
						OFFSET 3.362410 1.200890 -0.311210
						CHANNELS 3 Zrotation Yrotation Xrotation
						JOINT LeftForeArm
						{
							OFFSET 4.983000 -0.000000 -0.000000
							CHANNELS 3 Zrotation Yrotation Xrotation
							JOINT LeftHand
							{
								OFFSET 3.483560 -0.000000 -0.000000
								CHANNELS 3 Zrotation Yrotation Xrotation
								JOINT LeftFingerBase
								{
									OFFSET 0.000000 0.000000 0.000000
									CHANNELS 3 Zrotation Yrotation Xrotation
									JOINT LeftHandIndex1
									{
										OFFSET 0.715260 -0.000000 -0.000000
										CHANNELS 3 Zrotation Yrotation Xrotation
										End Site
										{
											OFFSET 0.000000 0.000000 0.000000
										}
									}
								}
								JOINT LThumb
								{
									OFFSET 0.000000 0.000000 0.000000
									CHANNELS 3 Zrotation Yrotation Xrotation
									End Site
									{
										OFFSET 0.000000 0.000000 0.000000
									}
								}
							}
						}
					}
				}
				JOINT RightShoulder
				{
					OFFSET 0.000000 0.000000 0.000000
					CHANNELS 3 Zrotation Yrotation Xrotation
					JOINT RightArm
					{
						OFFSET -3.136600 1.374050 -0.404650
						CHANNELS 3 Zrotation Yrotation Xrotation
						JOINT RightForeArm
						{
							OFFSET -5.241900 -0.000000 -0.000000
							CHANNELS 3 Zrotation Yrotation Xrotation
							JOINT RightHand
							{
								OFFSET -3.444170 -0.000000 -0.000000
								CHANNELS 3 Zrotation Yrotation Xrotation
								JOINT RightFingerBase
								{
									OFFSET 0.000000 0.000000 0.000000
									CHANNELS 3 Zrotation Yrotation Xrotation
									JOINT RightHandIndex1
									{
										OFFSET -0.622530 -0.000000 -0.000000
										CHANNELS 3 Zrotation Yrotation Xrotation
										End Site
										{
											OFFSET 0.000000 0.000000 0.000000
										}
									}
								}
								JOINT RThumb
								{
									OFFSET 0.000000 0.000000 0.000000
									CHANNELS 3 Zrotation Yrotation Xrotation
									End Site
									{
										OFFSET 0.000000 0.000000 0.000000
									}
								}
							}
						}
					}
				}
			}
		}
	}
}
MOTION
Frames: 11
Frame Time: 0.008333
-2.022003 16.719619 0.513627 16.585822 49.602250 25.263183 -9.944590 3.896772 -2.873779 -7.675827 18.790683 -16.853539 -0.228055 2.624784 48.101998 1.359432 0.141597 27.300510 -0.619100 0.000000 -75.543400 9.851212 -0.028890 3.492720 15.852547 4.892133 -27.090538 2.170497 1.823557 4.062173 -2.750418 -8.354776 -14.780697 -179.341600 0.000000 -11.438600 -3.122160 -4.399034 -1.352856 -1.081701 -4.288880 -2.797831 -6.163456 -4.365623 1.543601 8.191390 -8.763182 -7.624177 -3.687526 -0.279969 -0.025853 0.000000 0.000000 0.000000 -3.452913 6.056535 2.096950 -42.481374 0.266876 0.864675 -2.353165 -52.811733 -0.008865 8.928363 0.500546 0.036020 -0.173676 0.065442 -0.000000 0.000000 0.000000 0.000000 0.000000 0.000000 0.000000 16.044978 -8.316802 1.149687 59.839546 -5.647157 -17.508441 4.066872 4.466529 0.002790 -2.094212 1.552557 -0.030784 0.139228 -0.033218 -0.000000 0.000000 0.000000 0.000000 0.000000 0.000000 0.000000 
-1.900240 16.716262 0.613243 15.441533 48.215484 24.490852 -10.065363 3.738942 -2.819000 -7.210171 18.415862 -18.475397 -0.107380 2.725526 50.807005 1.482944 0.393144 28.264824 -0.544800 0.000000 -70.223100 9.654416 -0.135333 3.681556 16.348907 6.057917 -27.005002 2.308727 1.704285 5.176003 -2.521026 -7.375028 -14.551219 -179.419001 -0.000000 -13.302601 -2.600143 -4.240040 -1.578113 -0.985745 -4.168315 -2.856451 -6.153864 -4.248779 1.539813 8.147527 -8.581863 -7.656285 -3.701087 -0.281053 -0.032179 0.000000 0.000000 0.000000 -3.468042 6.242002 2.096187 -43.146259 0.959829 0.794356 -2.433394 -51.672661 -0.007570 8.868859 0.502571 0.036583 -0.171775 0.057066 0.000000 0.000000 0.000000 0.000000 0.000000 0.000000 0.000000 16.010218 -8.035335 1.175843 59.552592 -4.685375 -17.170780 4.088095 4.710074 0.002807 -1.844274 1.526785 -0.026871 0.138564 -0.035480 -0.000000 0.000000 0.000000 0.000000 0.000000 0.000000 0.000000 
-1.783304 16.714449 0.713856 14.380531 46.770567 23.830970 -10.146754 3.573054 -2.747069 -6.850503 17.857599 -20.111501 0.010172 2.830499 53.334105 1.600244 1.245919 28.538644 -0.118900 -0.000000 -64.752401 9.477937 -0.221925 3.862508 16.813453 7.182368 -26.896657 2.439217 1.594679 6.183659 -2.288841 -6.368590 -14.347656 -179.486800 -0.000000 -15.126600 -2.144782 -4.089995 -1.797645 -0.904768 -4.053381 -2.911853 -6.151028 -4.137338 1.536146 8.151085 -8.363234 -7.679866 -3.715101 -0.282255 -0.036659 0.000000 0.000000 0.000000 -3.421644 6.425216 2.096288 -43.862609 1.695602 0.764608 -2.515472 -50.472436 -0.006314 8.778253 0.516632 0.037943 -0.169678 0.048724 0.000000 0.000000 0.000000 0.000000 0.000000 0.000000 0.000000 16.016281 -7.717531 1.205344 59.329982 -3.624015 -16.880955 4.102602 4.955627 0.002857 -1.576963 1.509445 -0.023059 0.137376 -0.038010 -0.000000 0.000000 0.000000 0.000000 0.000000 0.000000 0.000000 
-1.671553 16.714097 0.816103 13.427902 45.279690 23.300105 -10.189067 3.402085 -2.653248 -6.597203 17.106899 -21.746063 0.130474 2.934305 55.637144 1.715285 2.642775 28.163604 0.613400 -0.000000 -59.530400 9.329382 -0.285890 4.034844 17.218676 8.261764 -26.737529 2.553165 1.499806 7.048352 -2.068477 -5.401390 -14.173927 -179.543700 0.000001 -16.891300 -1.775827 -3.954916 -2.016965 -0.842262 -3.948795 -2.964496 -6.156099 -4.036116 1.533486 8.203008 -8.123788 -7.694703 -3.729479 -0.283590 -0.039070 0.000000 0.000000 0.000000 -3.324404 6.590227 2.098240 -44.600409 2.494641 0.780648 -2.598616 -49.234771 -0.005097 8.638460 0.551993 0.040697 -0.167367 0.040279 0.000000 0.000000 0.000000 0.000000 0.000000 0.000000 0.000000 16.067605 -7.382779 1.237204 59.178252 -2.464900 -16.587092 4.109361 5.222496 0.002948 -1.303145 1.502638 -0.019242 0.135696 -0.040708 -0.000000 0.000000 0.000000 0.000000 0.000000 0.000000 0.000000 
-1.565093 16.715177 0.920506 12.595765 43.752458 22.903485 -10.193793 3.227905 -2.532212 -6.440053 16.159316 -23.361484 0.253293 3.029385 57.668492 1.833586 4.474669 27.219737 1.556800 0.000000 -54.877400 9.213130 -0.326117 4.198621 17.543884 9.295842 -26.506011 2.645522 1.424034 7.742873 -1.869202 -4.517193 -14.031015 -179.590000 0.000000 -18.572600 -1.503799 -3.838181 -2.242645 -0.799820 -3.857201 -3.014920 -6.169240 -3.947824 1.534195 8.299067 -7.874289 -7.702095 -3.743904 -0.285026 -0.039685 0.000000 0.000000 0.000000 -3.191654 6.741513 2.102749 -45.333136 3.345329 0.854920 -2.683894 -47.966104 -0.003944 8.433186 0.614913 0.045050 -0.164937 0.031688 0.000000 0.000000 0.000000 0.000000 0.000000 0.000000 0.000000 16.162517 -7.043172 1.269028 59.105453 -1.215150 -16.275904 4.108219 5.522226 0.003106 -1.024590 1.516567 -0.015625 0.133553 -0.043570 -0.000000 0.000000 0.000000 0.000000 0.000000 0.000000 0.000000 
-1.463774 16.717630 1.027355 11.885138 42.195791 22.636351 -10.163396 3.052011 -2.378966 -6.360213 15.017457 -24.937860 0.373695 3.107938 59.381068 1.960082 6.601276 25.813468 2.592400 -0.000000 -51.016200 9.130641 -0.343247 4.354080 17.776211 10.285129 -26.188742 2.714969 1.370220 8.252019 -1.694395 -3.733886 -13.917904 -179.627000 0.000001 -20.148500 -1.330207 -3.740267 -2.480493 -0.777275 -3.778873 -3.064012 -6.189658 -3.872827 1.539609 8.429594 -7.604615 -7.701027 -3.758406 -0.286559 -0.038307 0.000000 0.000000 0.000000 -3.038068 6.903390 2.111377 -46.042963 4.203330 1.006120 -2.774459 -46.650400 -0.002896 8.150323 0.706994 0.050901 -0.162596 0.023053 0.000000 0.000000 0.000000 0.000000 0.000000 0.000000 0.000000 16.291628 -6.687217 1.297036 59.124922 0.092129 -15.998668 4.099685 5.869307 0.003368 -0.729432 1.564332 -0.011905 0.130917 -0.046696 -0.000000 0.000000 0.000000 0.000000 0.000000 0.000000 0.000000 
-1.367240 16.721494 1.136842 11.288270 40.613252 22.486309 -10.101417 2.876257 -2.190534 -6.329643 13.696450 -26.457374 0.484439 3.164362 60.738260 2.095742 8.861813 24.039711 3.596500 0.000000 -47.853700 9.080777 -0.339654 4.501713 17.911527 11.230315 -25.780086 2.763358 1.339433 8.572016 -1.542074 -3.045124 -13.830657 -179.656399 0.000000 -21.607000 -1.248769 -3.659138 -2.734279 -0.773117 -3.712020 -3.112796 -6.216445 -3.809399 1.549567 8.584359 -7.330397 -7.693434 -3.772927 -0.288179 -0.035368 0.000000 0.000000 0.000000 -2.881262 7.071207 2.123213 -46.716979 5.070638 1.234333 -2.870519 -45.302795 -0.001982 7.776333 0.831470 0.057852 -0.160382 0.014312 0.000000 0.000000 0.000000 0.000000 0.000000 0.000000 0.000000 16.447784 -6.328986 1.320241 59.238569 1.441095 -15.686018 4.084896 6.294083 0.003736 -0.416201 1.642663 -0.007783 0.127856 -0.049956 -0.000000 0.000000 0.000000 0.000000 0.000000 0.000000 0.000000 
-1.274932 16.726746 1.248912 10.790540 39.004400 22.435335 -10.012225 2.702579 -1.965411 -6.317198 12.219994 -27.903258 0.578028 3.194829 61.710966 2.238583 11.101263 22.000967 4.464900 0.000000 -45.321600 9.060551 -0.319045 4.641743 17.952089 12.131067 -25.281779 2.794831 1.330748 8.710810 -1.405969 -2.423968 -13.762990 -179.680800 -0.000001 -22.936100 -1.247516 -3.590576 -3.005614 -0.784732 -3.652986 -3.162168 -6.247743 -3.753951 1.563291 8.750337 -7.052425 -7.679959 -3.787383 -0.289870 -0.031058 0.000000 0.000000 0.000000 -2.734720 7.254558 2.137754 -47.353065 5.927063 1.539537 -2.973204 -43.922607 -0.001246 7.304711 0.986512 0.065102 -0.158398 0.005536 0.000000 0.000000 0.000000 0.000000 0.000000 0.000000 0.000000 16.618095 -5.965794 1.336982 59.449666 2.802742 -15.314896 4.065445 6.822491 0.004214 -0.074365 1.750600 -0.002858 0.124403 -0.053307 -0.000000 0.000000 0.000000 0.000000 0.000000 0.000000 0.000000 
-1.186163 16.733437 1.363462 10.376344 37.367004 22.465714 -9.900169 2.532922 -1.703105 -6.293576 10.614642 -29.260186 0.648248 3.196820 62.276833 2.383782 13.185575 19.805968 5.127300 0.000000 -43.385800 9.066498 -0.285887 4.773370 17.904772 12.983199 -24.703175 2.814720 1.341470 8.686026 -1.276831 -1.828545 -13.705631 -179.703200 0.000000 -24.128099 -1.313020 -3.528586 -3.293759 -0.809590 -3.596415 -3.212273 -6.282504 -3.701075 1.581108 8.919393 -6.806994 -7.667352 -3.801773 -0.291589 -0.027066 0.000000 0.000000 0.000000 -2.614077 7.437198 2.151270 -47.949798 6.789510 1.906363 -3.080467 -42.538045 -0.000726 6.732616 1.173911 0.071949 -0.156588 -0.003381 0.000000 0.000000 0.000000 0.000000 0.000000 0.000000 0.000000 16.801410 -5.631772 1.348249 59.743197 4.181746 -14.743471 4.043478 7.483080 0.004781 0.290248 1.877562 0.003169 0.120731 -0.056532 0.000000 0.000000 0.000000 0.000000 0.000000 0.000000 0.000000 
-1.100251 16.741479 1.480182 10.025225 35.694467 22.555083 -9.771217 2.369500 -1.406895 -6.228967 8.922181 -30.522452 0.691273 3.171658 62.440106 2.521215 14.992043 17.515962 5.534901 0.000000 -41.771100 9.092925 -0.245761 4.897247 17.782818 13.786680 -24.056314 2.828974 1.367783 8.522258 -1.145148 -1.213953 -13.647849 -179.727000 0.000000 -25.176600 -1.426967 -3.466357 -3.596607 -0.843977 -3.536469 -3.264536 -6.317824 -3.645086 1.598179 9.076032 -6.557985 -7.649844 -3.816465 -0.293399 -0.021987 0.000000 0.000000 0.000000 -2.520091 7.643188 2.165619 -48.524276 7.616060 2.328890 -3.194305 -41.125440 -0.000473 6.068979 1.382150 0.076799 -0.155122 -0.012154 0.000000 0.000000 0.000000 0.000000 0.000000 0.000000 0.000000 16.976055 -5.283691 1.352045 60.126337 5.508776 -14.033698 4.020267 8.307693 0.005439 0.699770 2.016670 0.010901 0.116771 -0.059709 0.000000 0.000000 0.000000 0.000000 0.000000 0.000000 0.000000 
-1.016444 16.750866 1.598808 9.720279 33.980168 22.686673 -9.630215 2.213510 -1.079620 -6.102677 7.176735 -31.686281 0.705533 3.120068 62.206549 2.642533 16.447415 15.224866 5.688400 -0.000000 -40.601800 9.135205 -0.203662 5.012380 17.600090 14.536200 -23.357828 2.842981 1.405205 8.248283 -1.001730 -0.534979 -13.577401 -179.755300 -0.000000 -26.078100 -1.574899 -3.397047 -3.910634 -0.885356 -3.467063 -3.318818 -6.352507 -3.579833 1.614089 9.215787 -6.333053 -7.633234 -3.831646 -0.295276 -0.017277 0.000000 0.000000 0.000000 -2.458152 7.858212 2.177431 -49.088098 8.422025 2.779288 -3.311842 -39.707859 -0.000515 5.325677 1.608616 0.078943 -0.153924 -0.020792 0.000000 0.000000 0.000000 0.000000 0.000000 0.000000 0.000000 17.143380 -4.946586 1.350114 60.574792 6.788492 -13.060878 3.997167 9.314931 0.006158 1.142272 2.156486 0.020235 0.112695 -0.062676 0.000000 0.000000 0.000000 0.000000 0.000000 0.000000 0.000000 
